<svg width="25" height="24" viewBox="0 0 25 24" fill="none" xmlns="http://www.w3.org/2000/svg">
<g opacity="0.3" clip-path="url(#clip0_15_379)">
<path d="M24.1109 11.6111C24.1109 17.2222 18.912 21.7709 12.4998 21.7709C11.3498 21.7724 10.2045 21.6231 9.09337 21.3267C8.24576 21.7563 6.29945 22.5807 3.02512 23.1177C2.73484 23.1642 2.51423 22.8623 2.62889 22.5923C3.14268 21.379 3.60712 19.7621 3.74646 18.2875C1.96851 16.5023 0.888672 14.1656 0.888672 11.6111C0.888672 6.00007 6.08755 1.45142 12.4998 1.45142C18.912 1.45142 24.1109 6.00007 24.1109 11.6111ZM8.14562 11.6111C8.14562 11.2262 7.9927 10.857 7.72051 10.5849C7.44833 10.3127 7.07916 10.1597 6.69423 10.1597C6.3093 10.1597 5.94013 10.3127 5.66794 10.5849C5.39575 10.857 5.24284 11.2262 5.24284 11.6111C5.24284 11.9961 5.39575 12.3652 5.66794 12.6374C5.94013 12.9096 6.3093 13.0625 6.69423 13.0625C7.07916 13.0625 7.44833 12.9096 7.72051 12.6374C7.9927 12.3652 8.14562 11.9961 8.14562 11.6111ZM13.9512 11.6111C13.9512 11.2262 13.7983 10.857 13.5261 10.5849C13.2539 10.3127 12.8847 10.1597 12.4998 10.1597C12.1149 10.1597 11.7457 10.3127 11.4735 10.5849C11.2013 10.857 11.0484 11.2262 11.0484 11.6111C11.0484 11.9961 11.2013 12.3652 11.4735 12.6374C11.7457 12.9096 12.1149 13.0625 12.4998 13.0625C12.8847 13.0625 13.2539 12.9096 13.5261 12.6374C13.7983 12.3652 13.9512 11.9961 13.9512 11.6111ZM18.3053 13.0625C18.6903 13.0625 19.0594 12.9096 19.3316 12.6374C19.6038 12.3652 19.7567 11.9961 19.7567 11.6111C19.7567 11.2262 19.6038 10.857 19.3316 10.5849C19.0594 10.3127 18.6903 10.1597 18.3053 10.1597C17.9204 10.1597 17.5512 10.3127 17.2791 10.5849C17.0069 10.857 16.8539 11.2262 16.8539 11.6111C16.8539 11.9961 17.0069 12.3652 17.2791 12.6374C17.5512 12.9096 17.9204 13.0625 18.3053 13.0625Z" fill="black"/>
</g>
<defs>
<clipPath id="clip0_15_379">
<rect width="23.2222" height="23.2222" fill="white" transform="translate(0.888672)"/>
</clipPath>
</defs>
</svg>
