<svg width="104" height="131" viewBox="0 0 104 131" fill="none" xmlns="http://www.w3.org/2000/svg">
<path d="M31.945 49.8246C31.8389 49.6377 31.7391 49.4491 31.6426 49.2557C30.9267 47.8121 30.5214 46.2109 30.4586 44.6015C30.4538 44.4601 30.4506 44.3187 30.4506 44.1773C30.4458 38.7477 30.4458 33.3165 30.4506 27.8853C30.4554 26.0744 30.893 24.2635 31.7214 22.6525C32.8153 20.5262 34.5945 18.7624 36.7293 17.6992C38.2253 16.9531 39.8919 16.5483 41.5537 16.5255C41.6004 16.5255 41.647 16.5239 41.6937 16.5239C44.9223 16.5223 48.1525 16.5223 51.3811 16.5239C53.1684 16.5288 54.9637 16.9693 56.5595 17.8082C58.6041 18.8827 60.3045 20.6075 61.3614 22.6687C62.1625 24.231 62.5985 25.9785 62.6226 27.7455C62.6242 27.7927 62.6242 27.8382 62.6242 27.8853C62.6274 33.3165 62.6274 38.7477 62.6242 44.1773C62.6194 46.1361 62.0982 48.1064 61.1281 49.8246C65.774 52.7117 70.4231 55.5939 75.0625 58.4892C77.2938 59.8839 79.1325 61.8948 80.331 64.2552C81.3766 66.3116 81.9252 68.6249 81.9284 70.9202C81.9348 81.5079 81.9284 92.0955 81.9284 102.683C81.9268 103.927 81.441 105.151 80.5964 106.047C79.7181 106.978 78.4745 107.537 77.1796 107.558C77.1586 107.558 77.1377 107.558 77.1168 107.558C56.7348 107.589 36.3528 107.558 15.9708 107.558C14.6968 107.557 13.4356 107.025 12.5395 106.11C11.7046 105.255 11.1995 104.084 11.1512 102.885C11.148 102.823 11.1464 102.76 11.1464 102.698C11.1303 92.1004 11.1287 81.503 11.1464 70.904C11.1528 68.3306 11.843 65.7622 13.1347 63.5351C14.3075 61.5128 15.9724 59.7864 17.9109 58.5526C17.9527 58.5266 17.9946 58.5005 18.0364 58.4745L31.945 49.8246V49.8246ZM33.9479 52.3964C32.2459 53.4546 30.5439 54.5129 28.8419 55.5696V65.3704C30.494 65.6045 32.0753 66.3604 33.3012 67.5422C34.6155 68.8102 35.4825 70.5317 35.7206 72.3557C35.7383 72.4808 35.7512 72.6076 35.7624 72.7344C36.089 76.6684 36.4188 80.604 36.7357 84.5413C36.8081 85.4825 36.459 86.4432 35.7946 87.1081C35.1994 87.7047 34.3677 88.051 33.5296 88.051H32.0593C31.9193 88.0445 31.8839 88.0477 31.7456 88.0201C31.1793 87.9063 30.6903 87.4641 30.5198 86.8984C30.3364 86.2872 30.5423 85.5817 31.0394 85.1688C31.2823 84.9672 31.5863 84.8388 31.9016 84.8079C31.9547 84.803 32.0062 84.803 32.0593 84.7997C32.5483 84.7997 33.0389 84.8014 33.528 84.7997C33.2223 80.8658 32.8893 76.9334 32.5547 73.001C32.4791 72.1232 32.1654 71.2649 31.6507 70.5529C30.8029 69.3759 29.421 68.6151 27.9684 68.5485C27.896 68.5452 27.8252 68.5436 27.7544 68.5436C27.4053 68.5436 27.0547 68.5436 26.704 68.5436C25.5747 68.5485 24.4502 68.9679 23.5912 69.7075C22.6324 70.5334 22.0163 71.7558 21.9101 73.0092C21.5835 76.9383 21.257 80.869 20.9384 84.7997H22.4072L22.5648 84.8079C22.6163 84.816 22.6694 84.8209 22.7209 84.8323C23.1858 84.9249 23.6024 85.237 23.826 85.6597C24.0738 86.1279 24.0738 86.7228 23.826 87.1926C23.6024 87.6137 23.1858 87.9274 22.7209 88.0201C22.5825 88.0477 22.5471 88.0445 22.4072 88.051C21.9149 88.051 21.4211 88.0526 20.9288 88.051C20.0923 88.0477 19.2654 87.7031 18.6718 87.1081C18.0106 86.4449 17.6583 85.4825 17.7307 84.5413C18.0493 80.604 18.3758 76.6684 18.704 72.7344C18.8697 70.7853 19.748 68.9175 21.1476 67.5585C22.3637 66.3799 23.9451 65.6061 25.6245 65.3688V57.5691C23.6491 58.7964 21.6752 60.0254 19.703 61.256C17.3382 62.7336 15.5413 65.1282 14.782 67.8592C14.5069 68.8508 14.367 69.8815 14.3638 70.9105C14.3461 81.5046 14.3123 92.0988 14.3638 102.693C14.3686 103.346 14.7981 103.982 15.4239 104.211C15.596 104.275 15.7778 104.305 15.9612 104.307C36.3448 104.401 56.73 104.401 77.1136 104.307C77.6316 104.304 78.1367 104.032 78.4311 103.598C78.6113 103.332 78.7094 103.01 78.711 102.688C78.7271 92.0955 78.7239 81.503 78.711 70.9121C78.7046 69.002 78.222 67.1179 77.3227 65.4614C76.4058 63.7708 75.0609 62.3289 73.449 61.3047C73.4169 61.2836 73.3847 61.2625 73.3509 61.243L67.4503 57.5723V70.4537C68.0969 70.6862 68.6954 71.0535 69.1925 71.5364C69.9164 72.2435 70.4151 73.1831 70.592 74.1845C70.8221 75.4817 70.5051 76.8667 69.733 77.9299C69.0235 78.9053 67.9457 79.601 66.7682 79.8335C65.5247 80.079 64.1911 79.8059 63.1422 79.089C62.0242 78.3249 61.2456 77.0748 61.0606 75.7109C60.8965 74.4998 61.2005 73.227 61.9067 72.2224C62.4778 71.4112 63.3031 70.7902 64.2329 70.4537V55.5728L59.1285 52.398C58.3853 53.1149 57.544 53.7294 56.6351 54.2154C56.4533 54.313 56.2699 54.404 56.0833 54.4918C56.0769 54.5064 56.072 54.5227 56.0656 54.5389L48.0222 74.0463C47.9997 74.0934 47.9788 74.1438 47.9546 74.1894C47.6812 74.7047 47.1213 75.0461 46.5374 75.0461C45.9599 75.0461 45.3968 74.7096 45.1201 74.1894C45.096 74.1438 45.0751 74.0934 45.0526 74.0463L37.0092 54.5389C37.0027 54.5227 36.9979 54.5064 36.9915 54.4918C36.8306 54.417 36.6714 54.3373 36.5153 54.2561C35.5774 53.7619 34.712 53.1328 33.9479 52.3964V52.3964ZM65.8367 73.4204C65.1434 73.4237 64.4822 73.9146 64.2908 74.6104C64.1814 75.0119 64.2297 75.4541 64.4259 75.8198C64.6994 76.3287 65.2528 76.67 65.8367 76.6717C66.5896 76.6749 67.3135 76.0881 67.4326 75.2899C67.484 74.9388 67.4197 74.5681 67.2476 74.256C66.9709 73.7569 66.4223 73.4253 65.8512 73.4204C65.8464 73.4204 65.8416 73.4204 65.8367 73.4204V73.4204ZM41.7114 55.5387H40.907L46.5374 69.1938L52.1678 55.5387H51.3634C48.1461 55.5419 44.9287 55.5419 41.7114 55.5387ZM59.2862 26.5182C57.4603 27.4058 55.6104 28.2446 53.7395 29.02C52.1903 29.6621 50.6186 30.275 49.0132 30.7204C48.2152 30.9431 47.4061 31.135 46.5744 31.1545L46.4151 31.1496C46.362 31.1431 46.3074 31.1398 46.2559 31.1301C45.6767 31.026 45.1748 30.5822 44.9995 30.0084C44.9689 29.9044 44.948 29.7987 44.9368 29.6914C44.9319 29.6378 44.9319 29.5825 44.9287 29.5288V27.2904C42.8229 28.3161 40.6931 29.2622 38.4988 30.0279C37.3373 30.4327 36.1566 30.7903 34.9452 31.0033C34.564 31.0716 34.1795 31.1219 33.7934 31.1496L33.7789 31.1512C33.7403 31.1512 33.7033 31.1545 33.6663 31.1545C33.6631 35.4932 33.6647 39.8336 33.6679 44.1724C33.6712 45.8419 34.1924 47.4903 35.1383 48.8444C36.1164 50.2473 37.5513 51.3251 39.1616 51.8697C39.9772 52.1444 40.8378 52.2858 41.6985 52.2874H41.713H51.3618H51.3763C53.0783 52.2842 54.7803 51.7169 56.1493 50.6927C57.5199 49.667 58.551 48.1942 59.0513 46.5474C59.2846 45.7834 59.4036 44.9819 59.4068 44.1854C59.4213 38.7542 59.4101 33.323 59.4068 27.8918C59.4052 27.4302 59.365 26.9718 59.2862 26.5182V26.5182ZM51.3634 19.7752H41.7114C39.9997 19.7768 38.3009 20.3425 36.9255 21.3699C35.5469 22.4021 34.5125 23.8863 34.0154 25.5396C33.787 26.302 33.6696 27.1002 33.6679 27.8918V27.8984C34.6138 27.8187 35.5372 27.5667 36.4461 27.2855C38.5969 26.6206 40.6721 25.72 42.7296 24.7463C43.756 24.2619 44.7823 23.7547 45.7749 23.2215L45.7797 23.2182C45.9068 23.1581 45.9357 23.1385 46.0709 23.0963C46.1722 23.0654 46.2752 23.0459 46.3797 23.0345C46.4843 23.0248 46.5905 23.0296 46.695 23.0345C46.7481 23.0426 46.7996 23.0475 46.8511 23.0589C47.4173 23.1727 47.9064 23.6149 48.0769 24.1806C48.1075 24.283 48.1284 24.387 48.138 24.4927C48.1429 24.5463 48.1429 24.6 48.1461 24.652V27.5911C49.3381 27.2595 50.5028 26.8222 51.6578 26.3621C53.7153 25.5412 55.7358 24.626 57.7354 23.6636C57.8609 23.6035 57.9864 23.5417 58.1119 23.4816C58.0379 23.3645 57.9606 23.2507 57.8802 23.1385C56.8796 21.7405 55.427 20.679 53.7958 20.1572C53.0123 19.9052 52.1871 19.7752 51.3634 19.7752V19.7752Z" fill="white"/>
</svg>
