<svg width="89" height="111" viewBox="0 0 89 111" fill="none" xmlns="http://www.w3.org/2000/svg">
<g clip-path="url(#clip0_54_469)">
<path d="M54.15 64.2702C54.9121 64.2702 55.53 63.6566 55.53 62.8997C55.53 62.1429 54.9121 61.5293 54.15 61.5293C53.3879 61.5293 52.7701 62.1429 52.7701 62.8997C52.7701 63.6566 53.3879 64.2702 54.15 64.2702Z" fill="white"/>
<path d="M54.15 69.7521C54.9121 69.7521 55.53 69.1385 55.53 68.3817C55.53 67.6248 54.9121 67.0112 54.15 67.0112C53.3879 67.0112 52.7701 67.6248 52.7701 68.3817C52.7701 69.1385 53.3879 69.7521 54.15 69.7521Z" fill="white"/>
<path d="M54.15 75.2338C54.9121 75.2338 55.53 74.6202 55.53 73.8634C55.53 73.1065 54.9121 72.4929 54.15 72.4929C53.3879 72.4929 52.7701 73.1065 52.7701 73.8634C52.7701 74.6202 53.3879 75.2338 54.15 75.2338Z" fill="white"/>
<path d="M54.15 80.7155C54.9121 80.7155 55.53 80.1019 55.53 79.345C55.53 78.5882 54.9121 77.9746 54.15 77.9746C53.3879 77.9746 52.7701 78.5882 52.7701 79.345C52.7701 80.1019 53.3879 80.7155 54.15 80.7155Z" fill="white"/>
<path d="M81.7491 58.1033H63.8097C63.4437 58.1033 63.0927 58.2477 62.8339 58.5047C62.5751 58.7617 62.4297 59.1102 62.4297 59.4737V73.3425C62.4305 73.6123 62.5115 73.8759 62.6625 74.1001C62.8134 74.3244 63.0277 74.4995 63.2784 74.6033L72.7794 78.5502C72.9554 78.6276 73.1458 78.6676 73.3383 78.6676C73.5308 78.6676 73.7212 78.6276 73.8972 78.5502L82.3356 74.5485C82.5728 74.4379 82.7733 74.2626 82.9138 74.0429C83.0544 73.8233 83.129 73.5685 83.1291 73.3083V59.4737C83.1291 59.1102 82.9837 58.7617 82.7249 58.5047C82.4661 58.2477 82.1151 58.1033 81.7491 58.1033ZM80.3692 72.4929L73.2555 75.8093L65.1897 72.4312V60.8441H80.3692V72.4929Z" fill="white"/>
<path d="M69.3295 69.0669H71.3994V71.1225C71.3994 71.486 71.5448 71.8346 71.8036 72.0916C72.0624 72.3486 72.4134 72.493 72.7794 72.493C73.1454 72.493 73.4964 72.3486 73.7552 72.0916C74.014 71.8346 74.1593 71.486 74.1593 71.1225V69.0669H76.2293C76.5953 69.0669 76.9463 68.9225 77.2051 68.6655C77.4638 68.4085 77.6092 68.0599 77.6092 67.6964C77.6092 67.333 77.4638 66.9844 77.2051 66.7274C76.9463 66.4704 76.5953 66.326 76.2293 66.326H74.1593V64.2703C74.1593 63.9069 74.014 63.5583 73.7552 63.3013C73.4964 63.0443 73.1454 62.8999 72.7794 62.8999C72.4134 62.8999 72.0624 63.0443 71.8036 63.3013C71.5448 63.5583 71.3994 63.9069 71.3994 64.2703V66.326H69.3295C68.9635 66.326 68.6125 66.4704 68.3537 66.7274C68.0949 66.9844 67.9496 67.333 67.9496 67.6964C67.9496 68.0599 68.0949 68.4085 68.3537 68.6655C68.6125 68.9225 68.9635 69.0669 69.3295 69.0669Z" fill="white"/>
<path d="M88.6489 58.4459C88.6489 45.7488 79.1548 36.2449 67.9151 32.4761L67.508 31.0509C67.4912 30.9555 67.4426 30.8686 67.37 30.804C67.2974 30.7393 67.2051 30.7008 67.1078 30.6946C67.0019 30.6995 66.9004 30.7379 66.818 30.8042L58.4831 36.9712C58.3466 37.0703 58.2514 37.2158 58.2158 37.3801C58.1802 37.5443 58.2066 37.7158 58.2899 37.862L60.622 41.2881L54.1501 58.4733C54.0949 58.6789 54.1501 58.7885 54.1915 58.7885C54.2329 58.7885 54.3226 58.7337 54.4191 58.6241L67.0388 47.4071C67.1578 47.2573 67.2351 47.079 67.263 46.8902C67.2908 46.7014 67.2683 46.5087 67.1975 46.3313L65.031 41.5347L70.2472 42.7133H70.3783C70.6336 42.7133 70.7716 42.5077 70.6819 42.2063L68.819 35.6898C78.2441 39.4996 85.889 47.7086 85.889 58.4528C85.889 58.4528 85.889 82.4354 85.889 86.8894C85.889 87.2528 86.0344 87.6014 86.2932 87.8584C86.552 88.1154 86.903 88.2598 87.269 88.2598C87.6349 88.2598 87.9859 88.1154 88.2447 87.8584C88.5035 87.6014 88.6489 87.2528 88.6489 86.8894C88.6489 82.4286 88.6489 58.4459 88.6489 58.4459ZM60.4633 49.5861L62.8162 43.33L64.1961 46.297L60.4633 49.5861ZM65.652 38.8829C65.1628 38.7722 64.6525 38.796 64.176 38.9518C63.6994 39.1075 63.2746 39.3893 62.9473 39.7669V39.7669L61.7398 37.9579L65.7762 34.984L66.9698 39.1707L65.652 38.8829Z" fill="white"/>
<path d="M54.15 33.4354C57.4252 33.4354 60.6268 32.4709 63.35 30.6639C66.0732 28.8569 68.1956 26.2885 69.449 23.2835C70.7023 20.2785 71.0302 16.9719 70.3913 13.7819C69.7523 10.5918 68.1752 7.66154 65.8593 5.36163C63.5434 3.06172 60.5928 1.49546 57.3806 0.86092C54.1684 0.226377 50.8388 0.552047 47.813 1.79675C44.7872 3.04145 42.2009 5.14928 40.3813 7.85369C38.5618 10.5581 37.5906 13.7376 37.5906 16.9902C37.5906 21.3517 39.3352 25.5346 42.4407 28.6187C45.5462 31.7028 49.7582 33.4354 54.15 33.4354ZM54.15 3.2858C56.8793 3.2858 59.5473 4.08955 61.8166 5.59541C64.086 7.10126 65.8547 9.24159 66.8991 11.7457C67.9436 14.2499 68.2169 17.0054 67.6844 19.6638C67.152 22.3222 65.8377 24.764 63.9078 26.6806C61.9779 28.5972 59.519 29.9024 56.8422 30.4312C54.1653 30.96 51.3907 30.6886 48.8692 29.6514C46.3476 28.6141 44.1924 26.8576 42.6761 24.6039C41.1598 22.3502 40.3505 19.7006 40.3505 16.9902C40.3505 13.3556 41.8044 9.86979 44.3923 7.29972C46.9802 4.72965 50.4902 3.2858 54.15 3.2858V3.2858Z" fill="white"/>
<path d="M36.2106 78.6599H16.8912C16.5253 78.6599 16.1743 78.8043 15.9155 79.0613C15.6567 79.3183 15.5113 79.6669 15.5113 80.0304C15.5113 80.3938 15.6567 80.7424 15.9155 80.9994C16.1743 81.2564 16.5253 81.4008 16.8912 81.4008H36.2106C36.5766 81.4008 36.9276 81.2564 37.1864 80.9994C37.4452 80.7424 37.5906 80.3938 37.5906 80.0304C37.5906 79.6669 37.4452 79.3183 37.1864 79.0613C36.9276 78.8043 36.5766 78.6599 36.2106 78.6599Z" fill="white"/>
<path d="M23.791 75.9191H29.3108C29.6768 75.9191 30.0278 75.7747 30.2866 75.5177C30.5454 75.2607 30.6908 74.9121 30.6908 74.5487C30.6908 74.1852 30.5454 73.8366 30.2866 73.5796C30.0278 73.3226 29.6768 73.1782 29.3108 73.1782H23.791C23.425 73.1782 23.074 73.3226 22.8152 73.5796C22.5565 73.8366 22.4111 74.1852 22.4111 74.5487C22.4111 74.9121 22.5565 75.2607 22.8152 75.5177C23.074 75.7747 23.425 75.9191 23.791 75.9191Z" fill="white"/>
<path d="M45.7735 50.0724C48.099 51.2883 49.8633 53.3472 50.6999 55.8214L53.8531 58.6308C53.9497 58.7404 54.0256 58.7953 54.0808 58.7953C54.136 58.7953 54.1774 58.6856 54.1222 58.4801L47.664 41.2742L49.9962 37.8481C50.0919 37.7042 50.1294 37.5297 50.1013 37.3595C50.0731 37.1893 49.9814 37.0359 49.8444 36.9299L41.5094 30.763C41.4274 30.6962 41.3257 30.6577 41.2197 30.6533C41.1212 30.6581 41.0272 30.6959 40.9533 30.7606C40.8793 30.8254 40.8297 30.9132 40.8126 31.0096L40.4055 32.428C37.6494 33.3466 35.0207 34.6059 32.5811 36.1762C33.8011 36.3 34.9788 36.6883 36.031 37.3136C37.1581 36.6962 38.3216 36.1471 39.5154 35.6691L38.4184 39.4241C39.1335 40.2746 39.7129 41.229 40.1364 42.2541L43.262 41.5689L41.9648 44.3988C43.8305 45.8204 45.1697 47.8154 45.7735 50.0724V50.0724ZM47.8434 49.5859L44.1452 46.29L45.4906 43.323L47.8434 49.5859ZM42.6548 38.8759L41.3646 39.1706L42.5582 34.9839L46.5601 37.9578L45.3802 39.7393C45.0529 39.3618 44.6281 39.08 44.1515 38.9242C43.675 38.7685 43.1647 38.7447 42.6755 38.8554L42.6548 38.8759Z" fill="white"/>
<path d="M52.7703 64.9555C52.7703 63.8652 52.3341 62.8194 51.5577 62.0484C50.7813 61.2774 49.7284 60.8442 48.6304 60.8442H48.5683C48.6078 60.503 48.6286 60.1599 48.6304 59.8164C48.6304 56.0066 46.3673 52.8135 43.3728 52.094C42.9519 48.8392 40.8682 46.2285 38.1979 45.5844C37.7081 41.8157 34.9965 38.9172 31.726 38.9172C30.6726 38.9497 29.6448 39.2479 28.7395 39.7838C27.8342 40.3196 27.0811 41.0755 26.5511 41.9802C26.0212 41.0755 25.2681 40.3196 24.3628 39.7838C23.4575 39.2479 22.4297 38.9497 21.3763 38.9172C18.1058 38.9172 15.3942 41.8157 14.9043 45.5844C12.2341 46.2285 10.1504 48.8392 9.72949 52.094C6.73499 52.8135 4.47186 56.0066 4.47186 59.8164C4.47336 60.1599 4.49409 60.503 4.53396 60.8442H4.47186C3.45823 60.8486 2.48144 61.2222 1.72664 61.8941C0.971851 62.566 0.491514 63.4896 0.376682 64.4898C0.26185 65.4899 0.520504 66.4972 1.10362 67.3206C1.68673 68.144 2.55377 68.7263 3.5404 68.9572L6.24511 84.1417C6.56249 86.4646 8.40473 88.253 10.4264 88.253H42.6759C44.6975 88.253 46.5329 86.4303 46.8158 84.1417L49.5274 68.9367C50.4416 68.7352 51.2601 68.2318 51.8491 67.5087C52.4381 66.7856 52.7628 65.8856 52.7703 64.9555ZM45.8705 59.8164C45.8685 60.1606 45.8408 60.5041 45.7877 60.8442H38.3635C38.31 60.5042 38.2823 60.1606 38.2807 59.8164C38.2807 56.9796 39.985 54.6773 42.0756 54.6773C44.1662 54.6773 45.8705 56.9796 45.8705 59.8164ZM17.6642 60.8442C17.6107 60.5042 17.583 60.1606 17.5814 59.8164C17.5814 56.9796 19.2857 54.6773 21.3763 54.6773C23.4669 54.6773 25.1712 56.9796 25.1712 59.8164C25.1699 60.1606 25.1422 60.5042 25.0884 60.8442H17.6642ZM26.5511 48.1677C28.352 48.1677 29.8561 49.8739 30.2425 52.1488C28.7022 52.6183 27.3888 53.6325 26.5511 54.9993C25.7139 53.6321 24.4003 52.6177 22.8598 52.1488C23.2461 49.8807 24.7572 48.1677 26.5511 48.1677ZM28.0139 60.8442C27.9601 60.5042 27.9324 60.1606 27.9311 59.8164C27.9311 56.9796 29.6353 54.6773 31.726 54.6773C33.8166 54.6773 35.5208 56.9796 35.5208 59.8164C35.5189 60.1606 35.4912 60.5041 35.438 60.8442H28.0139ZM40.5922 52.1488C39.0519 52.6183 37.7385 53.6325 36.9008 54.9993C36.0631 53.6325 34.7497 52.6183 33.2094 52.1488C33.5958 49.8807 35.1068 48.1677 36.9008 48.1677C38.6947 48.1677 40.2058 49.8807 40.5922 52.1488ZM31.726 41.6581C33.5268 41.6581 35.031 43.3643 35.4242 45.6392C33.8784 46.1129 32.562 47.1349 31.726 48.5103C30.8883 47.1435 29.5749 46.1293 28.0346 45.6598C28.421 43.3643 29.932 41.6581 31.726 41.6581ZM21.3763 41.6581C23.1702 41.6581 24.6813 43.3643 25.0677 45.6392C23.5244 46.1144 22.2107 47.1362 21.3763 48.5103C20.5369 47.1422 19.2209 46.1278 17.678 45.6598C18.0713 43.3643 19.5824 41.6581 21.3763 41.6581ZM16.2015 48.1677C18.0023 48.1677 19.5065 49.8739 19.8998 52.1488C18.3572 52.6174 17.0413 53.6316 16.2015 54.9993C15.3647 53.6316 14.051 52.6171 12.5101 52.1488C12.8965 49.8807 14.4075 48.1677 16.2015 48.1677ZM7.23177 59.8164C7.23177 56.9796 8.93602 54.6773 11.0266 54.6773C13.1173 54.6773 14.8215 56.9796 14.8215 59.8164C14.8202 60.1606 14.7925 60.5042 14.7387 60.8442H7.31457C7.26075 60.5042 7.23307 60.1606 7.23177 59.8164ZM44.1249 83.7374C43.9869 84.7515 43.2417 85.5121 42.6759 85.5121H10.4264C9.86059 85.5121 9.12231 84.7515 8.97052 83.6826L6.3624 69.0669H46.7399L44.1249 83.7374ZM48.6304 66.326H4.47186C4.10588 66.326 3.75488 66.1816 3.49609 65.9246C3.2373 65.6676 3.09191 65.319 3.09191 64.9555C3.09191 64.5921 3.2373 64.2435 3.49609 63.9865C3.75488 63.7295 4.10588 63.5851 4.47186 63.5851H48.6304C48.9964 63.5851 49.3474 63.7295 49.6062 63.9865C49.865 64.2435 50.0104 64.5921 50.0104 64.9555C50.0104 65.319 49.865 65.6676 49.6062 65.9246C49.3474 66.1816 48.9964 66.326 48.6304 66.326Z" fill="white"/>
<path d="M32.8367 27.8304C34.8583 24.7195 35.3482 20.9782 34.2925 16.6682C34.2166 16.3532 34.0309 16.0751 33.7682 15.8832C33.5054 15.6913 33.1828 15.598 32.8574 15.6198C32.5952 15.6198 26.7718 16.0926 22.9217 20.1697C23.25 21.3644 23.4808 22.5835 23.6117 23.815C23.7954 23.4825 24.0006 23.1621 24.2258 22.8557C26.3854 19.9436 29.9871 18.8952 31.8155 18.532C32.3865 21.2035 31.9077 23.9907 30.477 26.3229C28.614 29.194 25.447 30.7357 23.3564 31.4826C23.2046 32.4328 23.0091 33.4012 22.7699 34.388C22.7699 34.4496 22.7285 34.5045 22.7147 34.5593C24.8537 34.0042 29.9664 32.2432 32.8367 27.8304Z" fill="white"/>
<path d="M18.7196 34.8059H18.7955C19.1058 34.8068 19.4073 34.7039 19.6515 34.5136C19.8956 34.3234 20.068 34.057 20.141 33.7575C21.859 26.6312 21.1 20.5533 17.8847 15.6883C12.7099 7.86309 3.09162 6.11579 2.71213 6.02671C2.35473 5.96677 1.98793 6.04888 1.69098 6.25531C1.39404 6.46173 1.1908 6.77589 1.12518 7.12991C-0.592859 15.6198 0.483505 22.472 4.31978 27.3644C9.6671 34.2235 18.3539 34.8059 18.7196 34.8059ZM3.5401 9.06908C6.17582 9.80226 12.0889 11.9607 15.5457 17.1889C17.8985 20.6972 18.7196 25.0073 18.0365 30.0094L14.5866 25.0963C14.3771 24.7983 14.0569 24.5951 13.6966 24.5315C13.3362 24.4679 12.9652 24.5491 12.6651 24.7572C12.3649 24.9652 12.1604 25.2832 12.0963 25.6411C12.0323 25.999 12.114 26.3675 12.3235 26.6655L15.6975 31.462C12.0767 30.5698 8.84469 28.5358 6.48631 25.6651C3.38141 21.6634 2.40164 16.0857 3.5677 9.06908H3.5401Z" fill="white"/>
<path d="M9.99148 22.4718C10.7536 22.4718 11.3714 21.8583 11.3714 21.1014C11.3714 20.3445 10.7536 19.731 9.99148 19.731C9.22935 19.731 8.61153 20.3445 8.61153 21.1014C8.61153 21.8583 9.22935 22.4718 9.99148 22.4718Z" fill="white"/>
</g>
<defs>
<clipPath id="clip0_54_469">
<rect width="88.3171" height="109.635" fill="white" transform="translate(0.331802 0.544922)"/>
</clipPath>
</defs>
</svg>
