<svg width="88" height="107" viewBox="0 0 88 107" fill="none" xmlns="http://www.w3.org/2000/svg">
<g clip-path="url(#clip0_54_424)">
<path d="M71.8538 85.4755C71.6149 85.4755 71.3777 85.4185 71.1626 85.3062L61.006 79.9523C60.2943 79.5767 60.0281 78.7065 60.4087 78.0073C60.791 77.3097 61.6734 77.0448 62.3885 77.4204L71.2514 82.0935L83.299 59.8178L79.5955 57.9096C78.8804 57.5424 78.6056 56.6738 78.981 55.9713C79.3548 55.2687 80.2372 54.9954 80.954 55.3676L85.9581 57.9465C86.3028 58.1242 86.5605 58.4294 86.6749 58.7933C86.7892 59.1588 86.7517 59.5545 86.569 59.8915L73.1441 84.7143C72.9615 85.0513 72.6509 85.3028 72.2788 85.4135C72.1389 85.4554 71.9972 85.4755 71.8538 85.4755ZM57.8316 65.1297C57.5995 65.1297 57.3639 65.0761 57.1438 64.9604C56.4321 64.5865 56.1641 63.7162 56.5447 63.017L64.5201 48.3672C64.9008 47.6696 65.7831 47.4014 66.4982 47.7786L71.5023 50.4078C72.214 50.7817 72.4819 51.6519 72.1013 52.3511C71.7224 53.0487 70.8401 53.317 70.1233 52.9397L66.4078 50.9879L59.1218 64.3718C58.859 64.8547 58.3538 65.1297 57.8316 65.1297Z" fill="white"/>
<path d="M79.285 59.8747C79.0477 59.8747 78.8105 59.8176 78.5972 59.7053L69.1352 54.7404C68.7921 54.561 68.5361 54.2542 68.4235 53.8886C68.3109 53.5231 68.3518 53.1274 68.5378 52.792L70.5193 49.1903C70.8982 48.4962 71.7806 48.2379 72.4872 48.6035L81.9491 53.5197C82.2939 53.6975 82.5499 54.0043 82.6642 54.3682C82.7769 54.7337 82.7393 55.1277 82.5567 55.4648L80.5752 59.1151C80.3926 59.4504 80.0803 59.7019 79.7099 59.8126C79.5717 59.8545 79.4283 59.8747 79.285 59.8747ZM71.8062 52.8876L78.6842 56.496L79.2867 55.3843L72.4018 51.8078L71.8062 52.8876Z" fill="white"/>
<path d="M76.013 65.8122C75.7826 65.8122 75.5471 65.7586 75.3286 65.6445L66.0151 60.7769C65.3017 60.4047 65.0321 59.5344 65.411 58.8352C65.7899 58.136 66.6739 57.8694 67.3873 58.2417L76.7008 63.1093C77.4142 63.4815 77.6839 64.3518 77.305 65.051C77.0422 65.5372 76.537 65.8122 76.013 65.8122Z" fill="white"/>
<path d="M72.8418 71.6523C72.6114 71.6523 72.3759 71.5987 72.1574 71.4846L62.844 66.617C62.1305 66.2448 61.8609 65.3745 62.2398 64.6753C62.6187 63.9761 63.5027 63.7095 64.2161 64.0817L73.5296 68.9494C74.243 69.3216 74.5127 70.1919 74.1338 70.8911C73.871 71.3773 73.3658 71.6523 72.8418 71.6523Z" fill="white"/>
<path d="M69.6728 77.4924C69.4424 77.4924 69.2086 77.4387 68.9901 77.3264L60.6666 72.9953C59.9531 72.6231 59.6818 71.7545 60.059 71.0536C60.4379 70.3544 61.3202 70.0912 62.0353 70.4567L70.3589 74.7878C71.0723 75.16 71.3437 76.0286 70.9665 76.7295C70.7037 77.2157 70.1968 77.4924 69.6728 77.4924Z" fill="white"/>
<path d="M29.9363 52.5273C18.6746 52.5273 14.9864 36.557 14.6109 28.0818C14.576 27.2904 15.2015 26.6196 16.0079 26.5853C16.7896 26.5543 17.4961 27.1646 17.5311 27.9577C17.9032 36.3641 21.6042 49.655 29.9465 49.655C29.9738 49.655 29.9994 49.655 30.0259 49.655C38.5381 49.5678 42.2263 36.2753 42.5514 27.9166C42.5821 27.1244 43.2938 26.5325 44.0669 26.5366C44.8742 26.5668 45.5023 27.2333 45.4715 28.0256C45.091 37.8154 40.6714 52.4183 30.0566 52.5256C30.0165 52.5256 29.9755 52.5273 29.9363 52.5273Z" fill="white"/>
<path d="M2.05137 85.4754C1.2441 85.4754 0.589584 84.8332 0.589584 84.0401C0.589584 74.7794 2.71955 66.3285 6.43334 60.8539C8.5633 57.715 11.7284 57.2354 14.5205 56.8129C16.8306 56.4625 18.8257 56.1606 20.2832 54.561C21.4498 53.342 21.3371 50.7866 21.2057 47.8288L22.6598 47.6343L24.1199 47.5723C24.2854 51.3114 24.4237 54.4285 22.4362 56.5027C20.3046 58.8418 17.4689 59.271 14.9669 59.65C12.4529 60.0323 10.2811 60.3609 8.86539 62.4468C5.46394 67.4603 3.51317 75.331 3.51317 84.0401C3.51317 84.8332 2.85864 85.4754 2.05137 85.4754Z" fill="white"/>
<path d="M58.0808 85.4755C57.2735 85.4755 56.6198 84.8333 56.6198 84.0402C56.6198 75.3781 54.6503 67.5073 51.2164 62.4469C49.7999 60.3593 47.6375 60.0307 45.1312 59.65C42.6351 59.2711 39.8063 58.8418 37.6294 56.4826C35.6112 54.3766 35.8066 51.0147 36.0131 47.455C36.0592 46.6635 36.7444 46.0532 37.556 46.1035C38.3615 46.1488 38.9777 46.8278 38.9316 47.6193C38.7609 50.5452 38.6005 53.3085 39.7755 54.5342C41.2757 56.159 43.2692 56.4608 45.5775 56.813C48.3628 57.2355 51.5185 57.7151 53.6485 60.854C57.3947 66.3738 59.5417 74.8264 59.5417 84.0402C59.5417 84.8333 58.8881 85.4755 58.0808 85.4755Z" fill="white"/>
<path d="M58.0807 85.4756H2.05138C1.2441 85.4756 0.589584 84.8334 0.589584 84.0403C0.589584 83.2472 1.2441 82.605 2.05138 82.605H58.0807C58.888 82.605 59.5416 83.2472 59.5416 84.0403C59.5417 84.8334 58.888 85.4756 58.0807 85.4756Z" fill="white"/>
<path d="M43.9619 30.1367C39.9528 30.1367 37.3782 28.2461 34.6526 26.2441C34.1842 25.9003 33.7037 25.5474 33.2028 25.1953C25.8973 20.1247 19.5748 26.1234 17.1948 28.9369C16.6794 29.5473 15.7569 29.6303 15.1374 29.1239C14.5161 28.6175 14.4308 27.7121 14.9471 27.1026C20.982 19.9629 28.4402 18.3759 34.8976 22.8553C35.4224 23.2251 35.9182 23.5889 36.402 23.9444C38.9288 25.7997 40.9248 27.2644 43.9619 27.2644C44.7691 27.2644 45.4236 27.9074 45.4236 28.7005C45.4236 29.4936 44.7691 30.1367 43.9619 30.1367Z" fill="white"/>
<path d="M16.0718 29.4557C15.5206 29.4557 14.9932 29.148 14.7457 28.624C11.7368 22.2565 11.5968 16.4138 14.3532 12.1716C17.1445 7.87578 22.716 5.50903 30.0412 5.50903C30.8485 5.50903 31.503 6.15207 31.503 6.94518C31.503 7.73829 30.8485 8.38132 30.0412 8.38132C23.7486 8.38132 19.0526 10.2761 16.8168 13.7168C14.6169 17.103 14.8225 21.9681 17.3962 27.4151C17.7367 28.1344 17.4184 28.9879 16.6862 29.3216C16.4874 29.4129 16.2783 29.4557 16.0718 29.4557Z" fill="white"/>
<path d="M44.0107 29.4071C43.8051 29.4071 43.5969 29.3643 43.398 29.2738C42.6659 28.9409 42.3467 28.0883 42.6855 27.3681C45.2481 21.9245 45.4529 17.0728 43.2632 13.7076C41.0283 10.2727 36.3152 8.38132 29.9919 8.38132C29.1846 8.38132 28.5301 7.73829 28.5301 6.94518C28.5301 6.15207 29.1846 5.50903 29.9919 5.50903C37.3469 5.50903 42.9347 7.87159 45.726 12.1607C48.4721 16.3803 48.3338 22.2096 45.3377 28.5737C45.0911 29.0985 44.5628 29.4071 44.0107 29.4071Z" fill="white"/>
<path d="M22.3619 9.45203C21.7253 9.45203 21.1408 9.04038 20.9573 8.40908C20.8259 7.95468 20.7525 7.43489 20.7525 6.94527C20.7525 3.16502 24.811 0.203857 29.9917 0.203857C35.2006 0.203857 39.2813 3.16502 39.2813 6.94527C39.2813 7.2823 39.2719 7.61933 39.2028 7.95636C39.0449 8.73521 38.2752 9.24411 37.4833 9.0823C36.6922 8.9272 36.1785 8.17098 36.3372 7.39297C36.3671 7.24373 36.3577 7.09451 36.3577 6.94527C36.3577 4.84764 33.4427 3.07615 29.9917 3.07615C26.5681 3.07615 23.6761 4.84765 23.6761 6.94527C23.6761 7.16995 23.7102 7.42231 23.7682 7.62268C23.9892 8.38477 23.5395 9.17955 22.763 9.3967C22.6298 9.43442 22.495 9.45203 22.3619 9.45203Z" fill="white"/>
<path d="M30.0413 74.2311C29.8314 74.2311 29.6206 74.1875 29.4226 74.0969L20.3071 69.9117C19.6176 69.5948 19.2908 68.8118 19.5562 68.1109L20.075 66.7359L18.7148 66.5247C18.3103 66.461 17.9519 66.2346 17.7258 65.8992C17.4996 65.5622 17.4271 65.1497 17.5261 64.759L19.9539 55.1713C20.1023 54.5878 20.6058 54.1552 21.216 54.0915C21.8176 54.0144 22.4124 54.343 22.6829 54.8829L31.3521 72.1603C31.6268 72.7069 31.5193 73.3642 31.0858 73.8001C30.8042 74.0818 30.4253 74.2311 30.0413 74.2311ZM22.7648 67.8694L26.8907 69.7642L21.8261 59.6718L20.7475 63.9341L22.2954 64.1755C22.7281 64.2443 23.107 64.4975 23.328 64.8697C23.549 65.242 23.5883 65.6913 23.4355 66.0938L22.7648 67.8694Z" fill="white"/>
<path d="M30.0415 74.2312C29.6575 74.2312 29.2786 74.082 28.997 73.8003C28.5635 73.3643 28.456 72.7071 28.7308 72.1604L37.4008 54.8831C37.6713 54.3432 38.2636 54.0128 38.8677 54.0916C39.4779 54.1554 39.9814 54.588 40.1298 55.1715L42.5568 64.7592C42.6557 65.1499 42.5832 65.5624 42.3579 65.8977C42.1326 66.2331 41.7751 66.4594 41.3715 66.5232L40.0308 66.7361L40.5343 68.1312C40.786 68.827 40.4575 69.5983 39.7757 69.9119L30.6602 74.0971C30.4622 74.1876 30.2514 74.2312 30.0415 74.2312ZM38.2567 59.6719L33.1921 69.7643L37.336 67.8629L36.69 66.0738C36.5449 65.673 36.5893 65.2287 36.8094 64.8632C37.0305 64.496 37.4059 64.2444 37.8343 64.1774L39.3371 63.9376L38.2567 59.6719Z" fill="white"/>
<path d="M30.0412 59.8965C26.6133 59.8965 23.1854 58.8099 20.4521 56.6335C19.8249 56.1355 19.7285 55.2317 20.2362 54.6147C20.7456 53.9976 21.6656 53.902 22.2919 54.4034C26.7097 57.9179 33.3735 57.9179 37.7913 54.4034C38.416 53.9004 39.3385 53.9976 39.8471 54.6147C40.3548 55.2317 40.2584 56.1355 39.6312 56.6335C36.8979 58.8082 33.4691 59.8965 30.0412 59.8965Z" fill="white"/>
<path d="M30.0413 85.4756C29.234 85.4756 28.5795 84.8334 28.5795 84.0403V72.7959C28.5795 72.0028 29.234 71.3606 30.0413 71.3606C30.8486 71.3606 31.5031 72.0028 31.5031 72.7959V84.0403C31.5031 84.8334 30.8486 85.4756 30.0413 85.4756Z" fill="white"/>
<path d="M8.93722 85.4756C8.12995 85.4756 7.47543 84.8334 7.47543 84.0403V78.2471C7.47543 77.454 8.12995 76.8118 8.93722 76.8118C9.7445 76.8118 10.399 77.454 10.399 78.2471V84.0403C10.399 84.8334 9.7445 85.4756 8.93722 85.4756Z" fill="white"/>
<path d="M50.0559 85.4756C49.2486 85.4756 48.5949 84.8334 48.5949 84.0403V78.2471C48.5949 77.454 49.2486 76.8118 50.0559 76.8118C50.8631 76.8118 51.5168 77.454 51.5168 78.2471V84.0403C51.5168 84.8334 50.8631 85.4756 50.0559 85.4756Z" fill="white"/>
<path d="M60.3112 45.7597C58.7649 45.7597 57.3347 45.1242 56.2834 44.01C55.6382 44.2649 54.9402 44.3973 54.2166 44.3973C51.8528 44.3973 49.7604 42.8698 48.8882 40.6364C47.5024 40.4268 46.2258 39.6932 45.2973 38.5522C44.7939 37.9326 44.8963 37.0297 45.526 36.5342C46.1592 36.0378 47.0774 36.1418 47.5809 36.7597C48.1236 37.4279 48.9207 37.8261 49.7092 37.8261H50.0061C50.711 37.8261 51.3135 38.3199 51.4432 38.9999C51.7197 40.4637 52.887 41.5251 54.2166 41.5251C54.8139 41.5251 55.3447 41.3498 55.7919 41.0044C56.1298 40.7437 56.5633 40.6448 56.9848 40.7261C57.403 40.8099 57.7648 41.0698 57.973 41.437C58.4867 42.3458 59.3606 42.8883 60.3112 42.8883C61.8814 42.8883 63.1597 41.4588 63.1597 39.7007C63.1597 38.9076 63.8134 38.2646 64.6206 38.2646C65.4279 38.2646 66.0816 38.9076 66.0816 39.7007C66.0816 43.0417 63.4925 45.7597 60.3112 45.7597ZM49.8098 14.416C49.2739 14.416 48.7568 14.1251 48.5008 13.6221C48.1407 12.9128 48.4325 12.0501 49.1545 11.6955C49.2808 11.6334 49.4105 11.5773 49.5402 11.5261C49.6801 8.38219 52.1139 5.85615 55.1211 5.75554C56.0496 3.66882 58.0413 2.29639 60.3112 2.29639C63.4925 2.29639 66.0816 5.01526 66.0816 8.3562C66.0816 9.1493 65.4279 9.79235 64.6206 9.79235C63.8134 9.79235 63.1597 9.1493 63.1597 8.3562C63.1597 6.59812 61.8814 5.16868 60.3112 5.16868C59.0124 5.16868 57.8877 6.163 57.5771 7.58656C57.4149 8.33691 56.6845 8.83072 55.9079 8.70161C55.6263 8.65466 55.4795 8.62448 55.3071 8.62448C53.7353 8.62448 52.4569 10.0539 52.4569 11.812C52.4569 12.0182 52.4518 12.1901 52.4877 12.3964C52.5559 12.7862 52.457 13.187 52.2146 13.503C51.9722 13.8191 51.6087 14.0228 51.2076 14.0664C50.8987 14.0999 50.6751 14.1595 50.4618 14.2643C50.2519 14.3674 50.0283 14.416 49.8098 14.416Z" fill="white"/>
<path d="M64.6208 41.137C63.8135 41.137 63.1598 40.4939 63.1598 39.7008V8.35631C63.1598 7.5632 63.8135 6.92017 64.6208 6.92017C65.428 6.92017 66.0817 7.5632 66.0817 8.35631V39.7008C66.0817 40.4939 65.428 41.137 64.6208 41.137Z" fill="white"/>
<path d="M51.2453 20.3543C51.0542 20.3543 50.8596 20.3174 50.6719 20.2386C50.5849 20.2025 50.4159 20.1589 50.1053 20.1589C49.298 20.1589 48.6443 19.5159 48.6443 18.7228C48.6443 17.9297 49.298 17.2866 50.1053 17.2866C50.7589 17.2866 51.3204 17.3889 51.8188 17.5977C52.5612 17.9087 52.906 18.7521 52.5902 19.4815C52.353 20.0273 51.812 20.3543 51.2453 20.3543Z" fill="white"/>
<path d="M50.0046 40.6985C49.2963 40.6985 48.6751 40.1921 48.5625 39.4837C48.4379 38.7006 48.984 37.9662 49.781 37.8438C50.8511 37.6795 51.7147 36.9727 52.0339 35.9993C52.2814 35.244 53.0989 34.8307 53.8737 35.0729C54.6417 35.3161 55.0633 36.1251 54.8158 36.8797C54.1553 38.8918 52.3991 40.3489 50.2316 40.6809C50.1548 40.6926 50.0797 40.6985 50.0046 40.6985Z" fill="white"/>
<path d="M64.621 27.5577C64.0083 27.5577 63.4382 27.177 63.2352 26.5751C62.8819 25.5372 61.8732 24.7969 60.7229 24.7323C59.9173 24.687 59.3012 24.0088 59.3473 23.2165C59.3934 22.4243 60.0948 21.8324 60.8901 21.8651C63.2249 21.9959 65.2815 23.5242 66.0068 25.668C66.2628 26.42 65.8481 27.2332 65.0835 27.4839C64.9299 27.5342 64.7746 27.5577 64.621 27.5577Z" fill="white"/>
<path d="M56.9425 31.5483C56.7599 31.5483 56.5738 31.5147 56.3946 31.4426C53.8926 30.4483 52.0118 28.4295 51.2319 25.9043C50.9981 25.1456 51.435 24.3441 52.2081 24.1144C52.9846 23.8846 53.7953 24.3147 54.0309 25.0726C54.5514 26.762 55.8127 28.1134 57.4903 28.7816C58.2396 29.0784 58.5997 29.9159 58.2976 30.6512C58.0672 31.2096 57.5194 31.5483 56.9425 31.5483Z" fill="white"/>
<path d="M51.8904 30.6724C51.3766 30.6724 50.8783 30.4058 50.6103 29.9338C50.2195 29.2404 50.4738 28.366 51.1787 27.9812C52.3614 27.3348 53.7609 27.1261 55.0989 27.391C55.8909 27.5469 56.4046 28.3031 56.2459 29.0812C56.0871 29.8575 55.3038 30.3605 54.5255 30.2063C53.8548 30.0755 53.1738 30.1761 52.5986 30.4913C52.3733 30.6137 52.1293 30.6724 51.8904 30.6724Z" fill="white"/>
<path d="M59.6662 38.5573C59.0945 38.5573 58.55 38.2245 58.3162 37.6729C58.0824 37.1195 57.823 36.6207 57.5431 36.1881C57.1096 35.5191 57.3093 34.6321 57.9903 34.2061C58.6729 33.7811 59.5758 33.9781 60.0076 34.6471C60.3779 35.2172 60.7176 35.8645 61.0162 36.5695C61.3252 37.3014 60.9736 38.1423 60.2277 38.4467C60.0434 38.5221 59.854 38.5573 59.6662 38.5573Z" fill="white"/>
<path d="M58.975 10.717C58.4681 10.717 57.9749 10.4571 57.7052 9.99436C57.3161 9.32785 56.6402 8.85249 55.8517 8.69152C55.0615 8.52972 54.5529 7.7693 54.7185 6.99296C54.8823 6.21662 55.6708 5.72198 56.4457 5.8796C58.0551 6.20824 59.4375 7.18831 60.2414 8.56744C60.6424 9.25576 60.4001 10.1327 59.6986 10.5267C59.4699 10.6559 59.2208 10.717 58.975 10.717Z" fill="white"/>
<path d="M59.5674 18.5535C59.3745 18.5535 59.1799 18.5158 58.9922 18.437C57.3708 17.7537 55.9355 16.5163 54.9541 14.951C54.5309 14.2753 54.7442 13.3908 55.432 12.9749C56.1198 12.5574 57.0192 12.7695 57.4425 13.4436C58.1013 14.4949 59.0861 15.3526 60.1425 15.7978C60.8849 16.1105 61.228 16.9539 60.9105 17.6833C60.6733 18.2274 60.134 18.5535 59.5674 18.5535Z" fill="white"/>
<path d="M57.0432 19.381C56.9783 19.381 56.9135 19.3768 56.8486 19.3684C56.0482 19.2636 55.4867 18.5409 55.5925 17.7554C55.7102 16.886 55.9509 16.0593 56.3076 15.2989C56.6455 14.5796 57.5091 14.2602 58.2464 14.5964C58.9803 14.9284 59.3011 15.781 58.9632 16.5012C58.7277 17.0008 58.569 17.55 58.4904 18.1343C58.3915 18.8562 57.7651 19.381 57.0432 19.381Z" fill="white"/>
<path d="M68.9302 45.7597C65.7489 45.7597 63.1598 43.0417 63.1598 39.7007C63.1598 38.9076 63.8135 38.2646 64.6208 38.2646C65.428 38.2646 66.0817 38.9076 66.0817 39.7007C66.0817 41.4588 67.36 42.8883 68.9302 42.8883C69.8979 42.8883 70.8127 42.3324 71.3179 41.437C71.5261 41.0698 71.8879 40.8099 72.3061 40.7261C72.7361 40.6489 73.1645 40.7462 73.499 41.0044C73.9462 41.3498 74.477 41.525 75.0726 41.525C76.4039 41.525 77.5712 40.4637 77.8477 38.9998C77.9774 38.3199 78.5799 37.8261 79.2848 37.8261H79.5817C81.1519 37.8261 82.4302 36.3967 82.4302 34.6386C82.4302 34.4248 82.3876 34.2119 82.35 33.9989C82.2698 33.5269 82.4353 33.0465 82.7886 32.7179C83.4338 32.1218 83.8178 31.2021 83.8178 30.2581C83.8178 29.1329 83.2546 28.0657 82.3824 27.5392C82.0428 27.3329 81.8022 26.9984 81.7185 26.6136C81.6366 26.2288 81.7168 25.8272 81.9438 25.5028C82.3534 24.9184 82.5787 24.2217 82.5787 23.5418C82.5787 22.3136 81.9012 21.144 80.8925 20.6309C80.1979 20.2788 79.9094 19.4522 80.2354 18.7546C80.4761 18.2449 80.5972 17.726 80.5972 17.2145C80.5972 15.583 79.493 14.2291 78.0286 14.0664C77.631 14.022 77.2692 13.8183 77.0285 13.5047C76.7862 13.1903 76.6872 12.7921 76.752 12.4039C76.7998 12.1247 76.8322 11.9814 76.8322 11.812C76.8322 10.0539 75.5539 8.62448 73.9838 8.62448C73.7875 8.62448 73.5912 8.66137 73.4257 8.69406C72.6423 8.84581 71.8794 8.35284 71.7121 7.58656C71.4066 6.18479 70.2358 5.16868 68.9302 5.16868C67.36 5.16868 66.0817 6.59811 66.0817 8.3562C66.0817 9.1493 65.428 9.79235 64.6208 9.79235C63.8135 9.79235 63.1598 9.1493 63.1598 8.3562C63.1598 5.01526 65.7489 2.29639 68.9302 2.29639C71.1813 2.29639 73.2192 3.69313 74.1613 5.75554C77.1787 5.85111 79.621 8.39224 79.749 11.5513C81.9728 12.4064 83.5191 14.6315 83.5191 17.2145C83.5191 17.7452 83.4508 18.2734 83.3143 18.7949C84.6711 19.9334 85.5006 21.6839 85.5006 23.5418C85.5006 24.3592 85.3282 25.1842 85.0022 25.953C86.0962 27.0613 86.7397 28.614 86.7397 30.258C86.7397 31.7319 86.2345 33.1429 85.3333 34.2362C85.3453 34.3703 85.3521 34.5044 85.3521 34.6386C85.3521 37.6869 83.1965 40.2172 80.4027 40.6372C79.5306 42.8706 77.4364 44.3973 75.0726 44.3973C74.3456 44.3973 73.6458 44.264 72.999 44.0067C71.9374 45.1108 70.4731 45.7597 68.9302 45.7597Z" fill="white"/>
<path d="M81.5617 20.792C81.2954 20.792 81.0275 20.7207 80.7851 20.5707C79.8976 20.0215 78.8326 19.9989 77.9298 20.5053C77.2318 20.8993 76.3374 20.6595 75.9364 19.9712C75.5353 19.2829 75.7777 18.406 76.4791 18.0119C78.3326 16.9698 80.524 17.0159 82.3416 18.141C83.0243 18.5636 83.2308 19.4498 82.8007 20.1205C82.5225 20.5539 82.0481 20.792 81.5617 20.792Z" fill="white"/>
<path d="M79.2866 40.6984C79.215 40.6984 79.1433 40.6934 79.0699 40.6825C77.5577 40.4612 76.2282 39.6823 75.3254 38.4884C74.4208 37.2921 74.0471 35.8157 74.2723 34.3301C74.3901 33.5454 75.1291 33.0063 75.933 33.1211C76.7317 33.2377 77.283 33.9687 77.1635 34.7526C76.9348 36.26 77.9622 37.6174 79.5 37.8421C80.2987 37.9586 80.85 38.6897 80.7305 39.4735C80.623 40.1862 79.9983 40.6984 79.2866 40.6984Z" fill="white"/>
<path d="M64.6208 33.1547C64.4552 33.1547 64.2863 33.127 64.1224 33.0683C63.3629 32.7975 62.9721 31.9734 63.2469 31.2281C64.0593 29.0332 66.0988 27.5727 68.4438 27.509C69.2716 27.509 69.9235 28.1127 69.9457 28.9041C69.9679 29.6972 69.3313 30.3578 68.5257 30.3796C67.3874 30.4107 66.3941 31.1283 65.9947 32.209C65.7779 32.7925 65.2181 33.1547 64.6208 33.1547Z" fill="white"/>
<path d="M74.2313 31.5483C73.6698 31.5483 73.1322 31.2272 72.8933 30.6881C72.569 29.9612 72.9052 29.1145 73.6459 28.7967C75.5711 27.9692 76.8886 26.1835 77.0849 24.137C77.1617 23.3481 77.8905 22.7822 78.6773 22.8425C79.4811 22.9172 80.0717 23.6172 79.9966 24.407C79.6996 27.4914 77.7147 30.1817 74.8167 31.4276C74.6273 31.5097 74.4276 31.5483 74.2313 31.5483Z" fill="white"/>
<path d="M78.8871 30.721C78.6567 30.721 78.4245 30.6674 78.2061 30.5542C77.6992 30.2918 77.0387 30.2079 76.3407 30.3144C75.5436 30.4385 74.7961 29.9027 74.6698 29.1197C74.5452 28.3358 75.0896 27.6014 75.8867 27.4773C77.2196 27.2719 78.4962 27.4572 79.5714 28.0156C80.2848 28.3861 80.5579 29.2547 80.1807 29.9556C79.9196 30.4427 79.4127 30.721 78.8871 30.721Z" fill="white"/>
<path d="M70.2666 10.717C70.0037 10.717 69.7392 10.6475 69.5003 10.5016C68.8125 10.0849 68.6008 9.20042 69.0258 8.52553C69.8809 7.16567 71.2735 6.20153 72.842 5.8796C73.6322 5.72198 74.407 6.21662 74.5709 6.99296C74.7364 7.7693 74.2295 8.52971 73.4393 8.69152C72.6508 8.85249 71.9477 9.34295 71.5108 10.0363C71.2343 10.4756 70.7564 10.717 70.2666 10.717Z" fill="white"/>
<path d="M69.8212 20.5487C69.5959 20.5487 69.3672 20.4967 69.1521 20.3886C68.4353 20.0239 68.1537 19.1578 68.5241 18.4536C69.0941 17.3696 69.275 16.0936 69.031 14.8586C68.8791 14.0798 69.3962 13.3269 70.1881 13.1768C70.9868 13.0234 71.7497 13.5356 71.9016 14.3137C72.2686 16.1791 71.9921 18.1174 71.1217 19.7715C70.8623 20.2653 70.3502 20.5487 69.8212 20.5487Z" fill="white"/>
<path d="M70.514 18.3095C69.8382 18.3095 69.2306 17.845 69.0855 17.1685C68.92 16.393 69.4251 15.6317 70.2153 15.4682C71.009 15.3048 71.7326 15.0239 72.3658 14.6341C73.0502 14.2157 73.9496 14.4186 74.3797 15.0893C74.8081 15.7617 74.5999 16.6478 73.9155 17.0687C72.9905 17.638 71.9476 18.0446 70.8161 18.2785C70.7154 18.2994 70.613 18.3095 70.514 18.3095Z" fill="white"/>
<path d="M69.6743 38.5572C69.5207 38.5572 69.3654 38.5338 69.2135 38.4835C68.4472 38.2328 68.0325 37.4204 68.2885 36.6675C68.5428 35.9155 68.9114 35.2113 69.3825 34.5733C69.8569 33.9327 70.77 33.7877 71.4254 34.2564C72.0773 34.7225 72.2224 35.6204 71.7479 36.2618C71.4561 36.6558 71.2189 37.1094 71.0601 37.5747C70.8571 38.1766 70.287 38.5572 69.6743 38.5572Z" fill="white"/>
</g>
<defs>
<clipPath id="clip0_54_424">
<rect width="86.7944" height="106.59" fill="white" transform="translate(0.267426 0.203857)"/>
</clipPath>
</defs>
</svg>
