<svg width="24" height="24" viewBox="0 0 24 24" fill="none" xmlns="http://www.w3.org/2000/svg">
<g opacity="0.3" clip-path="url(#clip0_15_454)">
<path d="M3.62853 11.6111C3.82099 11.6111 4.00558 11.5346 4.14167 11.3985C4.27776 11.2624 4.35422 11.0778 4.35422 10.8854C4.35422 10.6929 4.27776 10.5083 4.14167 10.3722C4.00558 10.2361 3.82099 10.1597 3.62853 10.1597C3.43606 10.1597 3.25148 10.2361 3.11538 10.3722C2.97929 10.5083 2.90283 10.6929 2.90283 10.8854C2.90283 11.0778 2.97929 11.2624 3.11538 11.3985C3.25148 11.5346 3.43606 11.6111 3.62853 11.6111Z" fill="black"/>
<path d="M7.25694 1.45142C6.48708 1.45142 5.74875 1.75724 5.20437 2.30162C4.65999 2.846 4.35417 3.58433 4.35417 4.35419V7.25697H2.90278C2.13291 7.25697 1.39458 7.5628 0.850204 8.10718C0.305828 8.65155 0 9.38988 0 10.1597L0 14.5139C0 15.2838 0.305828 16.0221 0.850204 16.5665C1.39458 17.1109 2.13291 17.4167 2.90278 17.4167H4.35417V18.8681C4.35417 19.6379 4.65999 20.3763 5.20437 20.9207C5.74875 21.465 6.48708 21.7709 7.25694 21.7709H15.9653C16.7351 21.7709 17.4735 21.465 18.0179 20.9207C18.5622 20.3763 18.8681 19.6379 18.8681 18.8681V17.4167H20.3194C21.0893 17.4167 21.8276 17.1109 22.372 16.5665C22.9164 16.0221 23.2222 15.2838 23.2222 14.5139V10.1597C23.2222 9.38988 22.9164 8.65155 22.372 8.10718C21.8276 7.5628 21.0893 7.25697 20.3194 7.25697H18.8681V4.35419C18.8681 3.58433 18.5622 2.846 18.0179 2.30162C17.4735 1.75724 16.7351 1.45142 15.9653 1.45142H7.25694ZM5.80556 4.35419C5.80556 3.96926 5.95847 3.6001 6.23066 3.32791C6.50285 3.05572 6.87201 2.9028 7.25694 2.9028H15.9653C16.3502 2.9028 16.7194 3.05572 16.9916 3.32791C17.2638 3.6001 17.4167 3.96926 17.4167 4.35419V7.25697H5.80556V4.35419ZM7.25694 11.6111C6.48708 11.6111 5.74875 11.917 5.20437 12.4613C4.65999 13.0057 4.35417 13.7441 4.35417 14.5139V15.9653H2.90278C2.51785 15.9653 2.14868 15.8124 1.87649 15.5402C1.6043 15.268 1.45139 14.8988 1.45139 14.5139V10.1597C1.45139 9.77482 1.6043 9.40565 1.87649 9.13346C2.14868 8.86127 2.51785 8.70836 2.90278 8.70836H20.3194C20.7044 8.70836 21.0735 8.86127 21.3457 9.13346C21.6179 9.40565 21.7708 9.77482 21.7708 10.1597V14.5139C21.7708 14.8988 21.6179 15.268 21.3457 15.5402C21.0735 15.8124 20.7044 15.9653 20.3194 15.9653H18.8681V14.5139C18.8681 13.7441 18.5622 13.0057 18.0179 12.4613C17.4735 11.917 16.7351 11.6111 15.9653 11.6111H7.25694ZM17.4167 14.5139V18.8681C17.4167 19.253 17.2638 19.6222 16.9916 19.8944C16.7194 20.1666 16.3502 20.3195 15.9653 20.3195H7.25694C6.87201 20.3195 6.50285 20.1666 6.23066 19.8944C5.95847 19.6222 5.80556 19.253 5.80556 18.8681V14.5139C5.80556 14.129 5.95847 13.7598 6.23066 13.4876C6.50285 13.2154 6.87201 13.0625 7.25694 13.0625H15.9653C16.3502 13.0625 16.7194 13.2154 16.9916 13.4876C17.2638 13.7598 17.4167 14.129 17.4167 14.5139Z" fill="black"/>
</g>
<defs>
<clipPath id="clip0_15_454">
<rect width="23.2222" height="23.2222" fill="white"/>
</clipPath>
</defs>
</svg>
