<svg width="24" height="19" viewBox="0 0 24 19" fill="none" xmlns="http://www.w3.org/2000/svg">
<path opacity="0.3" d="M8.07251 18.7777C16.836 18.7777 21.6299 11.7225 21.6299 5.61504C21.6299 5.41761 21.6299 5.21737 21.6212 5.01994C22.5546 4.36348 23.3601 3.55075 24.0001 2.61981C23.1282 2.9933 22.2043 3.23945 21.2584 3.35029C22.2548 2.7716 23.0011 1.86109 23.3585 0.787987C22.4224 1.32685 21.3977 1.70513 20.3295 1.90626C19.6113 1.16313 18.661 0.670826 17.6257 0.505609C16.5904 0.340392 15.5279 0.511481 14.6028 0.992375C13.6777 1.47327 12.9416 2.23713 12.5086 3.16564C12.0756 4.09415 11.9698 5.13548 12.2075 6.12834C10.3131 6.03605 8.45977 5.55788 6.76778 4.72485C5.07579 3.89182 3.58291 2.72254 2.38597 1.29283C1.77833 2.31251 1.59289 3.51866 1.86731 4.66636C2.14173 5.81406 2.85543 6.81726 3.86348 7.47225C3.10809 7.44731 2.36931 7.25023 1.70672 6.89689V6.96035C1.70802 8.02854 2.08888 9.06352 2.78492 9.89037C3.48096 10.7172 4.44948 11.2852 5.52678 11.4983C5.11787 11.6078 4.69546 11.6623 4.27133 11.6605C3.97232 11.6614 3.67391 11.6344 3.38017 11.5801C3.68465 12.4996 4.27753 13.3036 5.07575 13.8794C5.87398 14.4552 6.83758 14.774 7.83158 14.7911C6.14297 16.0797 4.0571 16.7786 1.90992 16.7752C1.53157 16.7768 1.15349 16.7556 0.777832 16.7118C2.95711 18.0617 5.48802 18.7784 8.07251 18.7777Z" fill="black"/>
</svg>
