<svg width="23" height="24" viewBox="0 0 23 24" fill="none" xmlns="http://www.w3.org/2000/svg">
<path opacity="0.3" d="M0.222168 1.66329C0.222168 0.744563 0.945418 0 1.83779 0H20.6065C21.4989 0 22.2222 0.744563 22.2222 1.66329V21.5589C22.2222 22.4777 21.4989 23.2222 20.6065 23.2222H1.83779C0.945418 23.2222 0.222168 22.4777 0.222168 21.5589V1.66329ZM7.01879 19.4399V8.95362H3.71742V19.4399H7.01879ZM5.36879 7.5211C6.51967 7.5211 7.23604 6.71703 7.23604 5.70976C7.21542 4.68073 6.52104 3.89843 5.39079 3.89843C4.26054 3.89843 3.52217 4.68218 3.52217 5.70976C3.52217 6.71703 4.23854 7.5211 5.34679 7.5211H5.36879ZM12.1173 19.4399V13.5835C12.1173 13.27 12.1393 12.9565 12.2273 12.733C12.4652 12.1075 13.0083 11.4587 13.9213 11.4587C15.1162 11.4587 15.5933 12.4195 15.5933 13.8303V19.4399H18.8947V13.4253C18.8947 10.2033 17.2667 8.70543 15.0942 8.70543C13.3424 8.70543 12.5573 9.7214 12.1173 10.4369V10.4732H12.0953C12.1026 10.4611 12.1099 10.449 12.1173 10.4369V8.95362H8.81729C8.85854 9.93766 8.81729 19.4399 8.81729 19.4399H12.1173Z" fill="black"/>
</svg>
